<?xml version="1.0" encoding="UTF-8" standalone="no"?>
<!-- Created with Inkscape (http://www.inkscape.org/) -->

<svg
   width="59.469028mm"
   height="59.429611mm"
   viewBox="0 0 59.469028 59.429611"
   version="1.1"
   id="svg21160"
   xml:space="preserve"
   inkscape:export-filename="youtube.svg"
   inkscape:export-xdpi="96"
   inkscape:export-ydpi="96"
   xmlns:inkscape="http://www.inkscape.org/namespaces/inkscape"
   xmlns:sodipodi="http://sodipodi.sourceforge.net/DTD/sodipodi-0.dtd"
   xmlns="http://www.w3.org/2000/svg"
   xmlns:svg="http://www.w3.org/2000/svg"><sodipodi:namedview
     id="namedview21162"
     pagecolor="#ffffff"
     bordercolor="#000000"
     borderopacity="0.25"
     inkscape:showpageshadow="2"
     inkscape:pageopacity="0.0"
     inkscape:pagecheckerboard="0"
     inkscape:deskcolor="#d1d1d1"
     inkscape:document-units="mm"
     showgrid="false" /><defs
     id="defs21157"><linearGradient
       id="linearGradient1951"
       inkscape:swatch="solid"><stop
         style="stop-color:#a52a2a;stop-opacity:1;"
         offset="0"
         id="stop1949" /></linearGradient></defs><g
     inkscape:label="Layer 1"
     inkscape:groupmode="layer"
     id="layer1"
     transform="translate(-30.793816,-69.692015)"><path
       style="fill:#a52a2a;stroke:#a52a2a;stroke-width:0.357402"
       d="M 64.870938,118.21923 V 107.541 l 3.841504,-0.10144 3.841507,-0.10144 0.429688,-2.85921 c 0.236329,-1.57256 0.525315,-3.3819 0.6422,-4.02076 l 0.21251,-1.161546 h -4.483706 -4.483703 v -3.03067 c 0,-3.6272 0.693989,-5.69041 2.170954,-6.45418 0.640673,-0.3313 2.062451,-0.52237 3.88711,-0.52237 h 2.876952 v -3.53232 c 0,-4.18235 0.290761,-3.96076 -5.206791,-3.96821 -6.335021,-0.009 -9.405265,1.51557 -11.327508,5.6233 -1.021942,2.18384 -1.118362,2.72577 -1.267531,7.12405 l -0.161449,4.7604 H 52.13659 48.430505 v 4.110106 4.11011 h 3.752707 3.752707 v 10.54332 c 0,11.92068 0.29254,10.95282 -3.037906,10.05089 -9.970328,-2.7001 -18.069112,-10.69406 -20.926337,-20.65546 -1.083302,-3.77681 -1.317175,-9.679116 -0.536448,-13.538476 2.144887,-10.60281 9.589772,-19.07784 19.748804,-22.481423 11.132579,-3.729757 23.024314,-0.684789 31.047676,7.949993 3.665341,3.94466 5.693171,7.65244 7.199311,13.16357 0.87848,3.21449 0.85738,10.665226 -0.0399,14.074086 -2.86885,10.89944 -11.459163,19.28817 -22.286458,21.76348 l -2.233753,0.51066 z"
       id="path23974"
       inkscape:export-filename="path23974.svg"
       inkscape:export-xdpi="96"
       inkscape:export-ydpi="96" /></g></svg>
